<?xml version="1.0" encoding="UTF-8"?> <svg xmlns="http://www.w3.org/2000/svg" width="121" height="36" viewBox="0 0 121 36" fill="none"><g clip-path="url(#clip0_1811_6)"><g clip-path="url(#clip1_1811_6)"><path fill-rule="evenodd" clip-rule="evenodd" d="M119.625 14.5884C120.475 15.8047 120.561 17.7217 119.658 19.2074C118.853 20.5343 114.032 25.6261 112.463 27.2623C111.103 28.6835 109.267 30.1067 107.461 30.1067H69.6324C64.5199 30.1067 64.2115 28.3734 64.2115 24.4545V8.55753C64.2115 4.55508 65.3927 3.39819 68.8839 3.39819H107.461C109.267 3.39819 110.875 4.32042 112.722 6.19819C114.289 7.79164 118.973 13.6526 119.625 14.5884Z" fill="#33CCCC"></path><path fill-rule="evenodd" clip-rule="evenodd" d="M119.625 14.5884C120.475 15.8047 120.561 17.7217 119.658 19.2074C118.853 20.5343 114.032 25.6261 112.463 27.2623C111.103 28.6835 109.267 30.1067 107.461 30.1067H69.6324C64.5199 30.1067 64.2115 28.3734 64.2115 24.4545V8.55753C64.2115 4.55508 65.3927 3.39819 68.8839 3.39819H107.461C109.267 3.39819 110.875 4.32042 112.722 6.19819C114.289 7.79164 118.973 13.6526 119.625 14.5884Z" fill="url(#paint0_linear_1811_6)"></path><path fill-rule="evenodd" clip-rule="evenodd" d="M72.787 9.545V9.44033C72.787 8.92922 72.7441 8.424 71.9066 8.424H68.7453C68.0105 8.424 67.9641 8.83033 67.9641 9.46166V13.6629C69.503 11.4623 71.2093 10.4399 72.787 9.545ZM93.995 24.7256V24.5001H93.9972V14.3884C93.9972 10.148 92.1331 8.028 88.405 8.02844C87.3718 8.01873 86.3562 8.29636 85.4717 8.83033C84.5842 9.36522 83.7316 10.1124 82.9137 11.0718C82.5117 10.0292 81.9055 9.26133 81.095 8.76822C80.2845 8.27511 79.2342 8.02852 77.9444 8.02844C76.4515 8.02844 74.7159 8.55144 73.4856 9.56344C73.2104 9.83911 67.9634 13.969 67.9634 18.2106V24.6842C67.9634 24.8901 67.8641 25.6712 68.7393 25.6712H72.0305C73.0536 25.6712 72.9538 25.0012 72.9538 24.7256V14.2554C73.5093 13.5186 74.6444 11.6987 76.4881 11.6987C77.1957 11.6987 77.7053 11.9381 78.0169 12.4171C78.3284 12.8961 78.4849 13.6992 78.4862 14.8263V23.0041H78.4823V24.6844C78.4823 24.8903 78.383 25.6714 79.2579 25.6714H82.5071C83.5309 25.6714 83.431 25.0014 83.431 24.7259V24.5003H83.4348V14.2559C84.03 13.519 85.216 11.6991 86.9681 11.6991C87.689 11.6991 88.2089 11.9386 88.5279 12.4176C88.8468 12.8965 89.0061 13.6996 89.0057 14.8268V23.0045H89.0024V24.6849C89.0024 24.8908 88.9035 25.6719 89.779 25.6719H93.0712C94.095 25.6714 93.995 25.0012 93.995 24.7256ZM112.121 20.6145C110.951 23.7629 108.147 25.5223 104.674 25.5223C99.6428 25.5223 96.3195 22.094 96.3195 16.9521C96.3195 11.8722 99.7695 8.19011 104.517 8.19011C109.214 8.19011 112.364 11.461 112.564 16.7299C112.589 17.4031 112.393 17.9979 111.552 17.9979H100.876C100.939 20.8232 102.302 22.3472 104.706 22.3472C106.173 22.3472 107.042 21.7149 107.798 20.4756C108.127 19.9364 108.802 19.9664 108.802 19.9664H111.552C112.001 19.9661 112.199 20.4048 112.121 20.6142V20.6145ZM104.517 11.459C102.522 11.459 101.129 12.8556 100.876 15.1423H108.029C107.839 13.1421 106.763 11.459 104.517 11.459Z" fill="white"></path><path fill-rule="evenodd" clip-rule="evenodd" d="M19.949 3.54348C19.5261 2.8696 18.9776 2.28339 18.3333 1.81681C17.6889 1.36411 16.9814 1.00916 16.2333 0.763478C15.4024 0.492835 14.5441 0.314538 13.6743 0.231811C12.679 0.133943 11.6796 0.0866609 10.6797 0.0901452H1.91634C1.12833 0.0901452 0.302335 0.607702 0.302335 1.5837V15.7937C1.41245 18.1621 3.57489 20.6764 6.03345 21.8781V19.0599C6.03345 17.5727 7.15334 17.2405 7.61656 17.2405H10.2077C13.7768 17.2405 16.5009 16.491 18.38 14.992C20.2591 13.4951 21.1986 11.2716 21.1986 8.32159C21.2039 7.46919 21.105 6.61933 20.9043 5.79092C20.7046 4.99667 20.3823 4.23841 19.949 3.54348ZM14.8424 10.8414C14.5398 11.3665 14.0885 11.7903 13.5455 12.0594C12.9569 12.3402 12.3211 12.5086 11.6708 12.5561C10.9626 12.6192 10.2312 12.6509 9.47667 12.651H7.01434C6.412 12.651 6.03345 12.1606 6.03345 11.4373V5.62759C6.03345 4.97603 6.45823 4.7027 6.96756 4.7027H9.47667C10.294 4.7027 11.0605 4.72629 11.7761 4.77348C12.4203 4.80286 13.0528 4.95558 13.6395 5.22337C14.1624 5.47228 14.5951 5.87731 14.8781 6.38259C15.1764 6.90222 15.3255 7.63556 15.3257 8.58259C15.3257 9.54415 15.1646 10.2971 14.8424 10.8414ZM6.03345 22.7964C3.32945 21.716 1.51667 20.4271 0.302335 19.1493V26.0093C0.302335 26.0093 0.202334 27.1281 1.29122 27.1281H5.11445C6.16323 27.1281 6.03389 26.0093 6.03389 26.0093V22.7964H6.03345ZM60.216 7.56559H56.7848C56.0875 7.56559 55.628 7.8587 55.3515 8.62559C55.0749 9.39248 51.438 19.5216 51.438 19.5216C51.438 19.5216 47.959 9.6017 47.6853 8.83359C47.4115 8.06548 46.9619 7.56559 46.1519 7.56559H42.9991C41.8869 7.56559 41.8869 8.43926 42.0248 8.7857C42.1367 9.0657 46.4543 20.8997 48.0987 25.408C48.4865 26.4724 48.6396 26.7926 48.6516 27.187C48.6636 27.5813 48.2627 28.4092 47.9857 28.8843C47.8585 29.1011 47.7124 29.3064 47.5492 29.4976C50.7729 28.5324 54.4886 25.03 56.41 21.2356C58.31 15.9477 60.8156 8.96248 60.9243 8.60514C61.099 8.02637 61.0973 7.56559 60.216 7.56559ZM45.065 30.5039C44.7671 30.4986 44.4698 30.4772 44.1744 30.4395C43.8127 30.3916 43.1359 30.4592 43.1359 31.0519V33.7012C43.1359 34.7123 43.6194 34.7797 43.8855 34.8396C44.6861 35.0065 45.5027 35.0854 46.3206 35.075C47.4046 35.075 48.3477 34.8777 49.1502 34.4834C49.9604 34.0824 50.6824 33.5235 51.2736 32.8395C51.9255 32.078 52.4764 31.2354 52.9126 30.3329C53.3916 29.3631 53.8514 28.2947 54.292 27.1279C54.292 27.1279 54.4809 26.6005 54.792 25.7366C53.8456 26.6921 49.3847 30.9222 45.065 30.5039ZM39.9123 10.7106C39.726 10.2678 39.4717 9.85685 39.1585 9.4927C38.8464 9.14315 38.4891 8.83675 38.0961 8.58159C37.672 8.30587 37.2221 8.07213 36.7528 7.8837C36.2735 7.69653 35.7806 7.54646 35.2784 7.43481C34.7074 7.30977 34.128 7.22677 33.545 7.18648C32.9154 7.13959 32.2076 7.11596 31.4217 7.11559C26.2237 7.11559 23.2639 8.75844 22.5423 12.0442C22.3076 13.0637 23.3161 13.1236 23.3161 13.1236H26.5138C27.3486 13.1236 27.3127 12.8546 27.7178 12.0997C27.8637 11.689 28.1263 11.3296 28.4734 11.0658C29.087 10.5931 30.0068 10.3567 31.2328 10.3566C32.4124 10.3566 33.2693 10.585 33.8037 11.0418C34.338 11.4986 34.6525 12.1925 34.7472 13.1236C34.7472 14.2033 34.4104 14.9236 33.1053 14.9236C29.9234 14.8081 26.5041 15.1681 24.5784 16.2722C22.6526 17.3763 21.5639 19.5349 21.5639 21.853C21.5639 22.7985 21.7329 23.6264 22.0711 24.3367C22.3988 25.0331 22.8833 25.6443 23.4865 26.1223C24.1266 26.6215 24.8603 26.9875 25.6441 27.1986C26.5352 27.443 27.4557 27.5626 28.3796 27.5542C29.7635 27.5542 30.9861 27.3806 32.0476 27.0335C33.1088 26.6871 34.751 25.5446 34.9601 25.378V25.987C34.9601 26.5904 35.1438 27.1286 35.8639 27.1286H39.5824C40.335 27.1286 40.5024 26.5904 40.5024 25.9281V14.4724C40.5089 13.7603 40.4617 13.0487 40.3611 12.3437C40.2814 11.7825 40.1305 11.2337 39.9123 10.7106ZM34.8417 21.9424C34.8417 21.9424 33.8815 23.937 30.4546 23.937C29.5117 23.937 28.7453 23.7242 28.1551 23.2986C27.5649 22.8731 27.27 22.2106 27.2705 21.3115C27.2705 20.1437 27.7501 19.3194 28.7097 18.8386C29.6683 18.3582 31.5875 18.0837 33.0256 18.1174C34.4637 18.1511 34.8417 19.0599 34.8417 19.6873V21.9429V21.9424Z" fill="#333333"></path></g></g><defs><linearGradient id="paint0_linear_1811_6" x1="138.832" y1="11.1099" x2="131.488" y2="55.4683" gradientUnits="userSpaceOnUse"><stop offset="0.47231" stop-color="#00CCCC"></stop><stop offset="1" stop-color="#3399FF"></stop></linearGradient><clipPath id="clip0_1811_6"><rect width="120" height="35" fill="white" transform="translate(0.299927 0.0899658)"></rect></clipPath><clipPath id="clip1_1811_6"><rect width="120" height="35" fill="white" transform="translate(0.299927 0.0899658)"></rect></clipPath></defs></svg> 